PathFileType	4	(X/Y/Z)	27_2_78_p0_0-225_filt_butterworth.trc
DataRate	CameraRate	NumFrames	NumMarkers	Units	OrigDataRate	OrigDataStartFrame	OrigNumFrames
55.0	55.0	6	27	m	55.0	28	225
Frame#	Time	RHip			RKnee			RAnkle			RBigToe			RSmallToe			RHeel			LHip			LKnee			LAnkle			LBigToe			LSmallToe			LHeel			Neck			Head			Nose			RShoulder			RElbow			RWrist			RThumb			RIndex			RPinky			LShoulder			LElbow			LWrist			LThumb			LIndex			LPinky			
		X1	Y1	Z1	X2	Y2	Z2	X3	Y3	Z3	X4	Y4	Z4	X5	Y5	Z5	X6	Y6	Z6	X7	Y7	Z7	X8	Y8	Z8	X9	Y9	Z9	X10	Y10	Z10	X11	Y11	Z11	X12	Y12	Z12	X13	Y13	Z13	X14	Y14	Z14	X15	Y15	Z15	X16	Y16	Z16	X17	Y17	Z17	X18	Y18	Z18	X19	Y19	Z19	X20	Y20	Z20	X21	Y21	Z21	X22	Y22	Z22	X23	Y23	Z23	X24	Y24	Z24	X25	Y25	Z25	X26	Y26	Z26	X27	Y27	Z27	
28	0.509090909090909	0.14098504709979212	0.5936549535416568	0.8579862651501154	0.16525442261182138	0.7069565313428774	1.3526476651425339	0.1874327341108504	0.7928090590413535	1.8091250806514527	0.12452989857369291	0.6053350935369751	1.8496115683972252	0.1838507566712963	0.59824419168613	1.8282147311526167	0.17009889123507527	0.8886232172008309	1.8811808495607851	-0.07855858247705587	0.6552757951108172	0.8788897218246152	-0.046469290967578944	0.7284090924812934	1.3634544722903454	-0.023388079282024722	0.7950004248919432	1.8250361410346563	-0.03542297347470818	0.5952488578655352	1.8336937434341016	-0.08125485482098163	0.6518814584945338	1.8454316332596685	0.010326925318964782	0.8765923924644488	1.8897181555857663	0.0018056324860223213	0.5785736946697085	0.31210583520833846	0.007320429947002708	0.5092762885167188	0.06870393446776522	-0.02283300275618637	0.43727811438848396	0.1967846083279707	0.1602356724208592	0.54020235176842	0.39512010749469295	0.18645695093908032	0.5416548190388941	0.6716998548940392	0.09666774724764186	0.46638657915055737	0.9111830169814091	0.02141619173158749	0.4324426347517396	0.9908974728909555	0.022252152554062404	0.46479744669290807	1.0227610957974091	0.022244329447685368	0.494053307002164	1.030782417373618	-0.14798499211531746	0.5709646052590196	0.4177896139964169	-0.16972287232322678	0.5730229734108443	0.6826909368736099	-0.07686276742501691	0.48065144380023556	0.9061177115981031	0.036030216481762384	0.45037006536051416	0.9670895124192823	0.0349845123357665	0.4633536234989308	0.9911102441954596	0.004809403533092617	0.47845505590574866	1.0214197927747524
29	0.5272727272727272	0.1409883930753746	0.5936448229909776	0.8580363860795945	0.16524349754105588	0.7068743826885063	1.3526998661402223	0.1874317122250238	0.7927709744376852	1.809113928520537	0.12446931413913248	0.6052545360287631	1.849709339680421	0.18384367867894175	0.5982476270664991	1.8282249178862093	0.17012413917862224	0.8884948567614176	1.8811221029898495	-0.07864305412621247	0.6552747650972326	0.8795365164482135	-0.04647718003143058	0.7284879944972462	1.3634307722587728	-0.02335621617232765	0.7948548392029117	1.8249873028059165	-0.034861285885912995	0.5965601271708787	1.834625239122265	-0.08156113400406423	0.6518101346148392	1.8452960319396312	0.010721873188158556	0.8765987690079978	1.8894747639588088	0.0017706419359318527	0.5786880912867548	0.3121088571388769	0.007342268540035449	0.5092799150485423	0.06871277689239172	-0.022824400222985142	0.43730417625649265	0.19675828174352317	0.16023548303205495	0.5401808914832849	0.3963663029279424	0.1872579399128574	0.5367615178692402	0.6722565995765535	0.09668342539664493	0.4664133864610479	0.911211294420872	0.02106534988971672	0.4360632599662037	0.992904473988443	0.0223193642798744	0.46495846895512294	1.0229268011883106	0.02222933751705194	0.49409982587458867	1.0307675186314642	-0.14807320929788279	0.5710869863467265	0.41680915598042834	-0.16971453775894238	0.5730416814120823	0.6826930410054395	-0.07684328944616352	0.4806321005468732	0.9061313936526059	0.036996278907228376	0.45054081376769956	0.9691350846113485	0.035591916667842664	0.463313091332827	0.9911989391964737	0.004999473438156965	0.47854518316776307	1.0223143194108077
30	0.5454545454545454	0.14099104047084196	0.5936150776514884	0.8580437016132125	0.1653014313913933	0.706905646448439	1.3527419313402724	0.18742530654139195	0.7927730961826257	1.809074082928316	0.12436351201654686	0.6050989972771353	1.8499277639109284	0.18378290585569418	0.5982592224147875	1.828240541962266	0.17011922846480243	0.8883184555608261	1.88105514132426	-0.07870523548209335	0.6552647215923516	0.8800695294841615	-0.046477063062698235	0.728474998523001	1.3634416042187576	-0.023294235863622885	0.7948205201580012	1.8250102444854162	-0.03326091315107952	0.6008320040098252	1.837801496455863	-0.08258205639290649	0.6517152210253304	1.845284003053381	0.011086985222832153	0.8765438667855243	1.8892730688384634	0.00177996124899165	0.5786433190800374	0.3120977302700394	0.007331038511796536	0.5092871585433127	0.06870916109240308	-0.022802231511566688	0.43732992498663315	0.19674175330359428	0.1602198098576834	0.5401545771314427	0.39727469421564754	0.18784186021210814	0.5331996409629218	0.6726663112219229	0.09668721370358233	0.46642935159608334	0.911235350447187	0.020963670760003904	0.43711521609478493	0.9939114013667398	0.022586632316209887	0.46505790788762824	1.0232786492403054	0.0222409950862969	0.49411878007756516	1.030790670361912	-0.1480968112754252	0.5710587157401182	0.4155208038062882	-0.16971171333418317	0.573040298955837	0.6826835982944998	-0.07681852561568081	0.4806060741143833	0.9061292784685031	0.036233383827944915	0.4506324819983986	0.9699109981252385	0.036930309919923354	0.46324229852679394	0.9912327512833995	0.005097425816450309	0.4786043140461841	1.023468517742721
31	0.5636363636363636	0.1409924515132593	0.5935671291077023	0.8579487555438605	0.16540600376412137	0.706993571503159	1.3528092501680233	0.18742327420119267	0.7927729669654652	1.809020055756862	0.12429598960423865	0.6049155467246362	1.8500349508584675	0.18366967081965718	0.59825295485296	1.8282723832426657	0.17012187470672624	0.8881904473155322	1.8810082210840546	-0.07866311066185638	0.6554026840114137	0.8806224137067555	-0.04645770377633711	0.7283403075660214	1.3637893170008883	-0.02319809441172515	0.7948960343522229	1.825050816973982	-0.03111147730914807	0.6067797979054315	1.8421747892200075	-0.08405551867039492	0.6517599855531794	1.8453477270018435	0.011204351867016077	0.8763863735421986	1.889080754367483	0.0018018524294453762	0.5785674142130539	0.312078004273289	0.007312644051065686	0.5092822230855919	0.06870033938688083	-0.022780237360959698	0.43733336095002795	0.19673473637986336	0.16020420398848262	0.540130435450216	0.3975746841877017	0.18802532805953692	0.532031378107011	0.6728198360266195	0.09669031548982336	0.466448350494951	0.9112663717090224	0.021694919202642823	0.4368815161248361	0.9940764650369229	0.02305529357672614	0.46496575640088456	1.0237117246275413	0.022262459570931602	0.4940784407493909	1.0308000440675529	-0.14810273518835398	0.5710060497064592	0.41455441773766977	-0.16972120142038497	0.5730231243537245	0.6826428819985062	-0.07679367997875464	0.48058528934332323	0.9061127181506712	0.03536885128598777	0.45053742978537553	0.9693247341372833	0.03869146652184814	0.4631119284872749	0.991218201471765	0.004972587193039676	0.47859732452750936	1.024340356906057
32	0.5818181818181818	0.14097700193035007	0.5935019081717308	0.8578274598948441	0.16555598189516096	0.7070535542959168	1.352914096680801	0.18743002549796858	0.7927386960022881	1.808981166191665	0.12458064562232947	0.604821510142535	1.849294757449441	0.18358082889081911	0.5982307448306122	1.8283017227361593	0.17015619760831802	0.8881338950386122	1.8809767744706156	-0.07842998250536669	0.6558415610543157	0.8813669488976479	-0.04641590799931873	0.7280625479705944	1.3647256435931399	-0.02293499310594116	0.7951476753347321	1.8250453729020826	-0.02963242922137882	0.6110606262301652	1.8449349732003384	-0.08517202663899287	0.6518558361683338	1.8454222615885596	0.010756914364237681	0.8762269000427784	1.8889519662040644	0.0018153276298576828	0.5785234515461791	0.3120630137419941	0.007290889667076653	0.5092644638218446	0.06884235036273366	-0.022805857093770886	0.4372348156385205	0.19674293352129946	0.16021625305005116	0.5401393087126486	0.3975460732209992	0.18796791368785576	0.532199704372402	0.6728315934628109	0.09670221231853081	0.4664693203587431	0.9113135621692598	0.02265097046624736	0.43754856693407185	0.9941552599289347	0.023273664456793783	0.4648093623586853	1.0239528464422938	0.022270164627545733	0.49398416178288057	1.0308541046813862	-0.14812818187561608	0.5710030340159024	0.41416236302822373	-0.16971944309826406	0.5729893958355725	0.6825356534186596	-0.07677714075659231	0.48058542906763657	0.9061007662826788	0.03585761373387275	0.4502768807775097	0.9685840356151988	0.03998085210669381	0.46282841212952236	0.9911485784786793	0.004668919667742834	0.47854414163987213	1.024750154809879
33	0.6	0.14093533560366708	0.5934406680143057	0.8581272541087339	0.16563255796849377	0.7070385218141052	1.3530015959219481	0.18743519558398825	0.7926737739292979	1.808977284050115	0.1255008467659911	0.6048434518820911	1.8472043035126098	0.18373218211073156	0.598211879764915	1.8282889283110098	0.17012791431778276	0.8881858236879546	1.8809756230836538	-0.07810477287536204	0.6564671468254606	0.8827599737106485	-0.046368833323810636	0.7277324394361838	1.3659559419907765	-0.022619356089838033	0.7954945186885196	1.8249630005666224	-0.02943933730396906	0.6119432422785243	1.8446036755799535	-0.08555080842608986	0.6518561656212284	1.8454074379772467	0.009482465678358573	0.8761015722223496	1.8889042698924574	0.0018163872660484793	0.5785112527129432	0.31205883751513774	0.00724994159101139	0.5092518636991652	0.06924807531948343	-0.022906775037017425	0.4369755654729254	0.19677221733308006	0.16025773523620643	0.5402040769854459	0.397489151868693	0.18786760901854	0.5325272315479044	0.6727929192334103	0.0967158748115286	0.4664793077051432	0.9113598400000711	0.023291043112627724	0.4404669583438012	0.9947417635297328	0.022931872986640102	0.4656698146802391	1.0242604092407006	0.02221603864652511	0.4938966984833627	1.0312079615337646	-0.14815945274707729	0.5710528985058776	0.4141750938103857	-0.16965296675401423	0.572975392072677	0.6823623437615765	-0.07676539816934054	0.4805862290213748	0.9061041767426063	0.03773173385465936	0.44987531531072883	0.9682559867304554	0.040396508680345194	0.4623048410099589	0.9909804157672963	0.004364986643132823	0.47850944528503564	1.0249058795792922
